<?xml version="1.0" standalone="no"?>
<!DOCTYPE svg PUBLIC "-//W3C//DTD SVG 20010904//EN"
 "http://www.w3.org/TR/2001/REC-SVG-20010904/DTD/svg10.dtd">
<svg version="1.0" xmlns="http://www.w3.org/2000/svg"
 width="261.000000pt" height="261.000000pt" viewBox="0 0 261.000000 261.000000"
 preserveAspectRatio="xMidYMid meet">
<metadata>
Created by potrace 1.14, written by Peter Selinger 2001-2017
</metadata>
<g transform="translate(0.000000,261.000000) scale(0.100000,-0.100000)"
fill="#000000" stroke="none">
<path d="M1070 2568 c-57 -10 -137 -30 -179 -45 -82 -28 -246 -106 -272 -129
-8 -8 -20 -14 -25 -14 -5 0 -21 -11 -36 -24 -28 -25 -30 -53 -6 -85 7 -9 8
-13 4 -9 -5 5 -15 -1 -23 -12 -8 -11 -20 -17 -29 -13 -9 3 -14 0 -12 -8 2 -8
-2 -13 -9 -12 -7 2 -10 -4 -7 -12 5 -11 2 -13 -12 -8 -10 4 -15 2 -11 -4 7
-11 -72 -90 -86 -85 -4 1 -6 -2 -3 -7 3 -5 0 -14 -7 -20 -10 -8 -19 -5 -36 10
l-22 21 -19 -24 c-11 -12 -24 -28 -28 -34 -5 -5 -15 -21 -22 -35 -7 -13 -16
-26 -19 -29 -22 -19 -122 -231 -137 -289 -2 -9 -8 -34 -14 -56 -6 -22 -13 -51
-16 -65 -2 -14 -6 -30 -9 -37 -5 -15 -17 -142 -19 -203 -2 -41 1 -45 24 -50
20 -4 26 -12 28 -38 3 -29 1 -32 -24 -32 l-26 0 6 -67 c12 -127 55 -277 118
-408 23 -49 96 -175 107 -185 4 -3 20 -22 36 -44 66 -85 60 -81 84 -64 20 14
24 13 74 -36 30 -28 68 -62 86 -76 18 -14 42 -33 53 -43 12 -9 25 -17 31 -17
8 0 7 -6 -9 -46 -3 -6 9 -17 25 -24 17 -7 31 -16 31 -20 0 -8 80 -44 93 -41 4
0 7 -4 7 -10 0 -5 4 -7 10 -4 5 3 10 1 10 -4 0 -6 3 -10 8 -9 4 1 21 -4 37
-11 42 -17 193 -61 235 -68 19 -3 46 -7 60 -9 44 -8 299 -12 298 -5 0 3 1 9 2
14 1 4 3 13 4 19 0 7 21 17 46 21 25 5 76 15 115 24 38 8 74 16 80 17 5 1 16
5 24 10 9 6 19 2 31 -14 l18 -24 65 28 c86 36 206 105 276 158 67 51 196 178
237 233 16 22 32 42 35 45 12 10 33 55 35 77 1 12 -4 24 -12 27 -12 5 -10 13
11 43 14 21 25 46 25 55 0 10 5 18 11 18 5 0 7 5 4 10 -3 6 -3 10 2 10 4 0 17
27 27 61 19 57 21 60 47 55 26 -5 28 -3 43 62 37 152 51 328 35 452 -4 30 -10
76 -13 102 -7 49 -59 234 -70 245 -3 3 -17 1 -30 -5 -23 -10 -26 -8 -52 46
-15 31 -36 70 -48 86 -13 19 -15 27 -5 22 11 -6 11 -5 -1 6 -8 7 -23 26 -33
41 -16 24 -17 31 -5 45 7 10 13 24 13 32 -1 54 -233 279 -355 346 -19 10 -37
21 -40 24 -18 20 -223 106 -274 116 -21 3 -25 -1 -30 -31 -4 -21 -13 -35 -21
-35 -8 0 -15 5 -15 11 0 5 6 7 13 3 6 -4 8 -3 4 1 -13 15 -36 14 -30 -1 4 -10
0 -12 -11 -8 -9 3 -13 11 -9 18 4 7 2 7 -7 -1 -10 -9 -20 -9 -44 0 -17 7 -48
12 -68 11 -22 -1 -38 4 -38 10 0 6 -5 4 -10 -4 -8 -12 -10 -12 -11 5 0 11 -3
14 -6 8 -6 -16 -53 -17 -53 -2 0 5 6 7 13 3 10 -6 10 -4 0 7 -7 7 -13 24 -13
37 0 22 -2 23 -78 20 -43 -1 -125 -10 -182 -20z"/>
</g>
</svg>
